<svg xmlns="http://www.w3.org/2000/svg" viewBox="0 0 165.32 165.32"><defs><style>.cls-1,.cls-3{fill:#1d1d1b;}.cls-1,.cls-2{stroke:#1d1d1b;}.cls-1,.cls-2,.cls-3{stroke-miterlimit:10;}.cls-2{fill:#fff;}.cls-3{stroke:#fff;}</style></defs><title>Ресурс 1</title><g id="Шар_2" data-name="Шар 2"><g id="Шар_1-2" data-name="Шар 1"><path class="cls-1" d="M48.4,127.56,37.77,116.92a56,56,0,0,0,4.95,5.66A57.51,57.51,0,0,0,48.4,127.56Z"/><path class="cls-1" d="M122.59,42.73a56.44,56.44,0,0,0-5.68-5l10.63,10.63A55.86,55.86,0,0,0,122.59,42.73Z"/><path class="cls-1" d="M62.23,164.06l-19.5-19.51,12.51-12.5a56.71,56.71,0,0,0,13.65,5.38,56.08,56.08,0,0,0,10,1.57,54.62,54.62,0,0,0,7.46,0l1-.08c.33,0,.64,0,.95-.08a57,57,0,0,0,8.1-1.42c.69-.17,1.39-.35,2.07-.56s1.32-.4,2-.61c.8-.27,1.6-.55,2.39-.85l1.71-.69h0a54.84,54.84,0,0,0,8.4-4.42,56.07,56.07,0,0,0,9.58-7.7c.36-.35.71-.72,1.06-1.08a56.48,56.48,0,0,0,8.26-11.17,58.28,58.28,0,0,0,2.8-5.73,2.18,2.18,0,0,0,.09-.23c.19-.43.36-.87.52-1.3s.26-.67.38-1,.18-.47.25-.71c.14-.4.28-.79.41-1.2.4-1.23.76-2.47,1.07-3.73q.63-2.51,1-5c.11-.68.2-1.33.28-2s.14-1.33.21-2c0-.32,0-.64.07-1a57.13,57.13,0,0,0,0-7.85,55.68,55.68,0,0,0-1.54-9.66,56.71,56.71,0,0,0-5.38-13.65l12.5-12.51,19.51,19.5L153.92,72.37c.13.91.24,1.82.34,2.73.21,2,.33,4,.37,6.06A69.79,69.79,0,0,1,154,92.25c-.06.49-.14,1-.21,1.47-.12.76-.24,1.51-.39,2.27a72.29,72.29,0,0,1-3.64,12.78c-.08.2-.16.39-.25.59a27.82,27.82,0,0,1,4.54,3.71,29,29,0,0,1,0,41c-.36.36-.72.71-1.09,1a29,29,0,0,1-39.91-1.05,27.82,27.82,0,0,1-3.71-4.54l-.59.25A72.29,72.29,0,0,1,96,153.41c-.86.16-1.71.31-2.57.44l-1.17.16a70.92,70.92,0,0,1-11.09.62,68.32,68.32,0,0,1-6.86-.47c-.65-.07-1.29-.14-1.93-.24Z"/><path class="cls-1" d="M.71,102.61,12.58,90.73l7.62,7.62a34.57,34.57,0,0,0-3.28,8.31,35.31,35.31,0,0,0-1,6.11,34.54,34.54,0,0,0,0,4.55c0,.2,0,.4.06.6s0,.38,0,.58a34.88,34.88,0,0,0,.87,4.93c.1.42.21.84.34,1.26s.24.8.37,1.2.33,1,.52,1.45.27.7.42,1a0,0,0,0,0,0,0,32.79,32.79,0,0,0,2.68,5.11A34.42,34.42,0,0,0,26,139.36l.66.64a34.64,34.64,0,0,0,6.8,5,34.11,34.11,0,0,0,3.49,1.71l.14,0c.27.12.53.22.8.32l.61.23.43.15c.24.09.49.18.74.25.74.25,1.5.46,2.26.65,1,.26,2,.47,3.08.63l1.22.17,1.22.12.59,0a34.35,34.35,0,0,0,10.66-.95A34.16,34.16,0,0,0,67,145.12l7.62,7.62L62.71,164.61l-6.17-6.17-1.66.21c-1.23.13-2.46.2-3.69.22a42.38,42.38,0,0,1-6.75-.37l-.9-.13c-.47-.07-.92-.15-1.38-.24a42.57,42.57,0,0,1-7.78-2.22l-.37-.14a17.66,17.66,0,0,1-20.8,6.86,17.46,17.46,0,0,1-6.42-4.1c-.22-.22-.43-.43-.64-.66a17.67,17.67,0,0,1,.64-24.31,17.27,17.27,0,0,1,2.77-2.25,2.75,2.75,0,0,1-.15-.36,42.9,42.9,0,0,1-2.22-7.79c-.1-.52-.19-1-.26-1.56,0-.24-.07-.48-.1-.71a42.45,42.45,0,0,1-.38-6.76A41.31,41.31,0,0,1,6.73,110c0-.4.09-.79.15-1.18Z"/><path class="cls-1" d="M164.61,62.71,152.74,74.59,145.12,67a34.42,34.42,0,0,0,4.24-14.42,34.54,34.54,0,0,0,0-4.55c0-.2,0-.4-.05-.59s0-.39-.05-.58a34.76,34.76,0,0,0-.87-4.94c-.1-.42-.21-.84-.34-1.26s-.24-.8-.37-1.19-.33-1-.51-1.46-.28-.7-.43-1v0a33.72,33.72,0,0,0-2.69-5.11A34.42,34.42,0,0,0,139.36,26l-.66-.64a35,35,0,0,0-6.8-5,34,34,0,0,0-3.49-1.7l-.14-.06c-.27-.12-.53-.22-.8-.32l-.61-.23-.43-.15-.73-.25c-.75-.25-1.51-.46-2.27-.65-1-.26-2-.47-3.08-.63-.41-.06-.81-.12-1.22-.16L117.91,16l-.58,0a34.33,34.33,0,0,0-19,4.23l-7.62-7.62L102.61.71l6.17,6.17c.56-.08,1.11-.15,1.66-.2,1.23-.14,2.46-.21,3.69-.23a41.37,41.37,0,0,1,6.76.38c.3,0,.59.08.89.13.47.06.92.14,1.38.23A42.9,42.9,0,0,1,131,9.41a2.75,2.75,0,0,1,.36.15,17.27,17.27,0,0,1,2.25-2.77,17.65,17.65,0,0,1,25,0c.22.22.44.44.64.66A17.66,17.66,0,0,1,155.77,34c0,.13.1.25.14.37a42.57,42.57,0,0,1,2.22,7.78c.1.52.19,1,.27,1.57,0,.23.07.47.1.71a42.25,42.25,0,0,1,.37,6.75,41.31,41.31,0,0,1-.28,4.17c0,.4-.09.79-.15,1.18Z"/><path class="cls-1" d="M33.27,110.08l-12.51,12.5-19.5-19.5L11.4,92.94c-.14-.91-.25-1.82-.34-2.73-.22-2-.34-4-.38-6.06a68.52,68.52,0,0,1,.63-11.08c0-.5.13-1,.21-1.48.11-.76.24-1.51.39-2.27a70.3,70.3,0,0,1,3.64-12.77q.1-.3.24-.6a28.28,28.28,0,0,1-4.54-3.7,28.77,28.77,0,0,1-7.5-13,28.95,28.95,0,0,1,7.49-28c.36-.36.72-.7,1.1-1a29,29,0,0,1,39.91,1.05A28.28,28.28,0,0,1,56,15.79q.3-.13.6-.24a70.3,70.3,0,0,1,12.77-3.64c.86-.16,1.72-.31,2.58-.44l1.17-.16a70.8,70.8,0,0,1,11.08-.63,68.12,68.12,0,0,1,6.86.47c.65.07,1.3.15,1.93.25L103.08,1.26l19.5,19.5-12.5,12.51a56.78,56.78,0,0,0-13.66-5.38,55.11,55.11,0,0,0-10-1.58,58.19,58.19,0,0,0-7.47,0c-.33,0-.66.05-1,.09l-1,.07c-1,.11-2,.24-3,.4a51.54,51.54,0,0,0-5.06,1c-.69.17-1.38.35-2.07.55l-2,.61c-.8.26-1.59.55-2.39.85-.58.22-1.15.45-1.72.69l0,0A54.78,54.78,0,0,0,52.31,35a56.46,56.46,0,0,0-9.58,7.7c-.35.35-.71.72-1,1.08a55.73,55.73,0,0,0-11.06,16.9,1,1,0,0,0-.09.24c-.19.43-.36.87-.53,1.3s-.26.67-.38,1-.18.47-.25.72-.29.79-.41,1.2c-.4,1.23-.76,2.47-1.06,3.72a51.54,51.54,0,0,0-1,5.06c-.09.56-.17,1.12-.23,1.69,0,.25-.07.5-.1.75q-.09.78-.15,1.56c0,.33-.05.65-.07,1a57.28,57.28,0,0,0,0,7.86,55.59,55.59,0,0,0,1.55,9.65A56.78,56.78,0,0,0,33.27,110.08Z"/><path class="cls-2" d="M48.48,127.62c.35.27.71.54,1.07.78.71.53,1.44,1,2.19,1.52.47.32.95.63,1.45.92a1.08,1.08,0,0,0,.18.11l1.23.73.45.26.19.11a56.71,56.71,0,0,0,13.65,5.38,56.08,56.08,0,0,0,10,1.57,54.62,54.62,0,0,0,7.46,0l1-.08c.33,0,.64,0,.95-.08a57,57,0,0,0,8.1-1.42c.69-.17,1.39-.35,2.07-.56s1.32-.4,2-.61c.8-.27,1.6-.55,2.39-.85l1.71-.69h0a54.84,54.84,0,0,0,8.4-4.42,56.07,56.07,0,0,0,9.58-7.7c.36-.35.71-.72,1.06-1.08a56.48,56.48,0,0,0,8.26-11.17,58.28,58.28,0,0,0,2.8-5.73,2.18,2.18,0,0,0,.09-.23c.19-.43.36-.87.52-1.3s.26-.67.38-1,.18-.47.25-.71c.14-.4.28-.79.41-1.2.4-1.23.76-2.47,1.07-3.73q.63-2.51,1-5c.11-.68.2-1.33.28-2s.14-1.33.21-2c0-.32,0-.64.07-1a57.13,57.13,0,0,0,0-7.85,55.68,55.68,0,0,0-1.54-9.66,56.71,56.71,0,0,0-5.38-13.65l-.11-.19c-.32-.57-.66-1.14-1-1.71-.67-1.11-1.39-2.19-2.15-3.27-.4-.57-.81-1.13-1.25-1.68L116.91,37.76l-.07-.06c-.36-.27-.71-.54-1.07-.79-.72-.53-1.44-1-2.19-1.51-.48-.32-1-.63-1.45-.93l-.18-.1c-.41-.26-.82-.5-1.24-.73l-.63-.37a56.78,56.78,0,0,0-13.66-5.38,55.11,55.11,0,0,0-10-1.58,58.19,58.19,0,0,0-7.47,0c-.33,0-.66.05-1,.09l-1,.07c-1,.11-2,.24-3,.4a51.54,51.54,0,0,0-5.06,1c-.69.17-1.38.35-2.07.55l-2,.61c-.8.26-1.59.55-2.39.85-.58.22-1.15.45-1.72.69l0,0A54.78,54.78,0,0,0,52.31,35a56.46,56.46,0,0,0-9.58,7.7c-.35.35-.71.72-1,1.08a55.73,55.73,0,0,0-11.06,16.9,1,1,0,0,0-.09.24c-.19.43-.36.87-.53,1.3s-.26.67-.38,1-.18.47-.25.72-.29.79-.41,1.2c-.4,1.23-.76,2.47-1.06,3.72a51.54,51.54,0,0,0-1,5.06c-.09.56-.17,1.12-.23,1.69,0,.25-.07.5-.1.75q-.09.78-.15,1.56c0,.33-.05.65-.07,1a57.28,57.28,0,0,0,0,7.86,55.59,55.59,0,0,0,1.55,9.65,56.78,56.78,0,0,0,5.38,13.66c.35.63.72,1.27,1.1,1.89q1,1.68,2.16,3.27c.4.57.81,1.12,1.22,1.67l10.67,10.66Zm34-66.73L99.64,43.71a1.76,1.76,0,0,1,.2.09l1.21.56c.49.23,1,.47,1.45.73s.78.42,1.17.64a37.35,37.35,0,0,1,3.78,2.44c.23.15.45.32.67.48.75.56,1.5,1.16,2.22,1.78l.9.8.43.4q.51.48,1,1h0c.34.34.66.68,1,1,.14.14.28.29.4.43.27.3.54.59.8.9.63.72,1.23,1.46,1.79,2.22l.48.66a39.76,39.76,0,0,1,3.11,5c.24.44.47.9.68,1.35s.39.83.58,1.24a1.89,1.89,0,0,0,.09.21L104.43,82.86Zm-29.84,51.8q-.51-.51-1-1c-.14-.14-.27-.29-.4-.43l-.8-.9c-.62-.72-1.22-1.47-1.78-2.22-.16-.22-.33-.44-.48-.67a37.35,37.35,0,0,1-2.44-3.78c-.22-.39-.44-.78-.64-1.17s-.5-1-.73-1.45-.38-.8-.56-1.21a1.76,1.76,0,0,1-.09-.2L60.89,82.46l22,22L65.68,121.61l-.21-.09-1.24-.58c-.45-.21-.91-.44-1.35-.68a39.76,39.76,0,0,1-5-3.11l-.66-.48c-.76-.56-1.5-1.16-2.22-1.79-.31-.26-.6-.53-.9-.8-.14-.12-.29-.26-.43-.4-.35-.32-.69-.64-1-1Z"/><path class="cls-3" d="M52.62,112.7h0q-.51-.51-1-1c-.14-.14-.27-.29-.4-.43l-.8-.9c-.62-.72-1.22-1.47-1.78-2.22-.16-.22-.33-.44-.48-.67a37.35,37.35,0,0,1-2.44-3.78c-.22-.39-.44-.78-.64-1.17s-.5-1-.73-1.45-.38-.8-.56-1.21a1.76,1.76,0,0,1-.09-.2L60.89,82.46l22,22L65.68,121.61l-.21-.09-1.24-.58c-.45-.21-.91-.44-1.35-.68a39.76,39.76,0,0,1-5-3.11l-.66-.48c-.76-.56-1.5-1.16-2.22-1.79-.31-.26-.6-.53-.9-.8-.14-.12-.29-.26-.43-.4C53.3,113.36,53,113,52.62,112.7Z"/><path class="cls-3" d="M104.43,82.86l-22-22L99.64,43.71a1.76,1.76,0,0,1,.2.09l1.21.56c.49.23,1,.47,1.45.73s.78.42,1.17.64a37.35,37.35,0,0,1,3.78,2.44c.23.15.45.32.67.48.75.56,1.5,1.16,2.22,1.78l.9.8.43.4q.51.48,1,1h0c.34.34.66.68,1,1,.14.14.28.29.4.43.27.3.54.59.8.9.63.72,1.23,1.46,1.79,2.22l.48.66a39.76,39.76,0,0,1,3.11,5c.24.44.47.9.68,1.35s.39.83.58,1.24a1.89,1.89,0,0,0,.09.21Z"/></g></g></svg>