<svg width="46" height="47" viewBox="0 0 46 47" fill="none" xmlns="http://www.w3.org/2000/svg">
<path fill-rule="evenodd" clip-rule="evenodd" d="M32.4559 44.1873C47.2969 37.3013 50.6219 17.5773 38.8279 6.38829C24.1309 -7.55571 -5.34451e-05 2.82229 -5.52167e-05 23.0873C-5.60357e-05 32.4553 5.62794 40.9723 14.1739 44.5363C19.1899 46.6283 27.5379 46.4693 32.4559 44.1873ZM12.6099 40.8383C-3.47105 31.9603 0.0979476 7.89629 18.2199 3.01629C31.6489 -0.599709 45.7929 12.2543 43.4759 25.9693C41.0039 40.6023 25.6129 48.0163 12.6099 40.8383ZM28.9319 25.6123C31.9059 22.6003 34.0169 19.8153 33.6239 19.4223C33.2309 19.0293 30.6699 20.9143 27.9329 23.6103L22.9559 28.5123L17.9789 23.6103C15.2419 20.9143 12.6809 19.0293 12.2879 19.4223C11.6259 20.0843 21.6889 31.0873 22.9559 31.0873C23.2689 31.0873 25.9579 28.6233 28.9319 25.6123Z" fill="white"/>
</svg>
