<svg width="40" height="40" viewBox="0 0 40 40" fill="none" xmlns="http://www.w3.org/2000/svg">
<path fill-rule="evenodd" clip-rule="evenodd" d="M0.555288 36.8726C0.830288 37.8486 2.43729 38.8526 4.27829 39.1976C8.86629 40.0586 37.5733 39.3256 38.5733 38.3226C39.6603 37.2326 39.6573 2.07556 38.5713 0.988562C37.4843 -0.0974381 2.32729 -0.0994354 1.23729 0.986565C0.350286 1.87056 -0.259712 33.9736 0.555288 36.8726ZM6.11529 11.8446C7.06429 10.8956 8.69129 11.9846 13.6153 16.8656L19.9043 23.0976L26.2363 16.8216C31.8943 11.2136 32.7113 10.7186 33.9133 12.1666C35.0903 13.5846 34.3033 14.7406 27.5893 21.4546L19.9213 29.1226L12.4133 21.6636C8.28329 17.5616 4.90429 13.9466 4.90429 13.6306C4.90429 13.3146 5.44929 12.5106 6.11529 11.8446Z" fill="white"/>
</svg>
